Coordinates
version=1
nRows=12
nColumns=46
inDegrees=yes

Units are S.I. units (second, meters, Newtons, ...)
Angles are in degrees.

endheader
time	pelvis_tilt	pelvis_list	pelvis_rotation	pelvis_tx	pelvis_ty	pelvis_tz	bb_angle	bb_tx	bb_ty	bb_tz	hip_flexion_r	hip_adduction_r	hip_rotation_r	knee_angle_r	knee_angle_r_beta	ankle_angle_r	subtalar_angle_r	mtp_angle_r	crank_angle_r	hip_flexion_l	hip_adduction_l	hip_rotation_l	knee_angle_l	knee_angle_l_beta	ankle_angle_l	subtalar_angle_l	mtp_angle_l	crank_angle_l	lumbar_extension	lumbar_bending	lumbar_rotation	arm_flex_r	arm_add_r	arm_rot_r	elbow_flex_r	pro_sup_r	wrist_flex_r	wrist_dev_r	arm_flex_l	arm_add_l	arm_rot_l	elbow_flex_l	pro_sup_l	wrist_flex_l	wrist_dev_l
      5.00000000	    -19.89467138	      7.02185742	      6.48390367	      0.36805941	      1.21187341	     -0.24796952	      0.00000000	      0.50000000	      0.00000000	      0.25000000	     23.70167802	    -15.17056822	    -13.64498293	     20.66545189	      0.36068018	    -16.02329381	      7.22200685	      0.00000000	      0.00000000	     73.36982693	     -7.09804065	     -4.48000509	    105.77963967	      1.84620299	      7.33009365	     15.84958048	      0.00000000	      0.00000000	    -56.75004102	     -5.76975776	     -3.73136046	     59.27331309	    -20.47389479	     28.59293762	     49.48717380	     45.65001246	      0.00000000	      0.00000000	     78.80643119	     -5.73224381	     69.50532499	     28.76827658	     47.59392013	      0.00000000	      0.00000000
      5.00500000	    -19.51070525	      7.03997130	      7.36351670	      0.36784632	      1.21402649	     -0.24787816	      0.00000000	      0.50000000	      0.00000000	      0.25000000	     22.58721602	    -15.49450730	    -14.69816446	     20.85448413	      0.36397941	    -16.50236890	      7.35206666	      0.00000000	      0.00000000	     73.56796572	     -6.05278269	     -4.20769769	    105.33542455	      1.83844998	      7.77480413	     15.62404568	      0.00000000	      0.00000000	    -57.23597792	     -5.50502055	     -3.94841718	     59.60701418	    -20.84908506	     28.99986819	     48.56912048	     45.57209337	      0.00000000	      0.00000000	     79.09223172	     -4.66393109	     69.57901955	     27.66166774	     47.40915631	      0.00000000	      0.00000000
      5.01000000	    -19.52908919	      6.87672158	      7.60781906	      0.36783039	      1.21545046	     -0.24768987	      0.00000000	      0.50000000	      0.00000000	      0.25000000	     22.25610064	    -15.38970019	    -14.60597920	     21.29842472	      0.37172764	    -16.82007971	      7.23804625	      0.00000000	      0.00000000	     74.08381758	     -5.66161473	     -4.02170875	    104.88083782	      1.83051594	      8.27560087	     15.56793132	      0.00000000	      0.00000000	    -57.21633619	     -5.55715976	     -3.97569789	     59.56818130	    -20.86165804	     29.05403284	     48.45733054	     45.56268766	      0.00000000	      0.00000000	     79.09924617	     -4.45488282	     69.59557181	     27.65051768	     47.40633310	      0.00000000	      0.00000000
      5.01500000	    -19.74029535	      6.79225551	      8.20628675	      0.36742300	      1.21689220	     -0.24811480	      0.00000000	      0.50000000	      0.00000000	      0.25000000	     22.36901584	    -15.68375183	    -15.22458960	     22.35078306	      0.39009475	    -17.22695408	      6.51984423	      0.00000000	      0.00000000	     74.72813805	     -4.83097163	     -3.84797718	    104.27869571	      1.82000658	      9.18318579	     15.65571649	      0.00000000	      0.00000000	    -56.92507365	     -5.50757130	     -3.90626930	     60.14294126	    -21.14308835	     29.90183393	     46.39354728	     45.37222574	      0.00000000	      0.00000000	     79.15808042	     -2.48773651	     69.31370916	     25.07045089	     46.88795554	      0.00000000	      0.00000000
      5.02000000	    -19.64723167	      6.73299343	      8.62969402	      0.36720099	      1.21922801	     -0.24800294	      0.00000000	      0.50000000	      0.00000000	      0.25000000	     22.15391709	    -15.80598763	    -15.40373706	     23.31818046	      0.40697902	    -17.43935139	      5.76100938	      0.00000000	      0.00000000	     74.85975713	     -4.18956316	     -3.72442782	    103.45914593	      1.80570274	      9.78835297	     15.50640161	      0.00000000	      0.00000000	    -57.13828403	     -5.44385840	     -3.98260252	     60.26308597	    -21.22933448	     29.91395764	     46.15870417	     45.33939307	      0.00000000	      0.00000000	     79.31117572	     -2.09545203	     69.25949699	     25.09619181	     46.86917229	      0.00000000	      0.00000000
      5.02500000	    -19.55024381	      6.72427125	      9.01354742	      0.36681390	      1.22190014	     -0.24774347	      0.00000000	      0.50000000	      0.00000000	      0.25000000	     22.06270204	    -15.95538905	    -15.32776717	     24.47828379	      0.42722665	    -17.66407147	      5.01496577	      0.00000000	      0.00000000	     74.83993763	     -3.53404310	     -3.66214531	    102.39508563	      1.78713138	     10.26127304	     15.74574022	      0.00000000	      0.00000000	    -57.37719596	     -5.47852863	     -4.01661017	     60.47718720	    -21.26096396	     30.01589714	     45.51822249	     45.25418110	      0.00000000	      0.00000000	     79.51719193	     -1.49797044	     69.05964798	     24.75724704	     46.75367354	      0.00000000	      0.00000000
      5.03000000	    -19.36090971	      6.68567822	      9.38827007	      0.36626888	      1.22494883	     -0.24717553	      0.00000000	      0.50000000	      0.00000000	      0.25000000	     22.04888572	    -16.06335595	    -15.27072047	     25.87308216	      0.45157047	    -17.89890196	      4.08030256	      0.00000000	      0.00000000	     74.59267797	     -2.89511620	     -3.52779666	    101.16788851	      1.76571275	     10.90537320	     15.63783397	      0.00000000	      0.00000000	    -57.78116845	     -5.44838376	     -4.04067446	     60.80773221	    -21.22859285	     30.03124643	     44.98640821	     45.17004412	      0.00000000	      0.00000000	     79.79132983	     -0.96314496	     68.87712031	     24.51659182	     46.65868859	      0.00000000	      0.00000000
      5.03500000	    -19.30727804	      6.54459615	      9.45438693	      0.36571193	      1.22760827	     -0.24689200	      0.00000000	      0.50000000	      0.00000000	      0.25000000	     22.47875712	    -16.04142445	    -14.78946080	     27.57805341	      0.48132783	    -17.96457445	      3.15112021	      0.00000000	      0.00000000	     74.39148549	     -2.54891526	     -3.41388857	     99.87203141	      1.74309578	     11.44393543	     15.50143450	      0.00000000	      0.00000000	    -57.79148424	     -5.56045207	     -4.07821936	     62.08874630	    -20.16058491	     30.84299760	     41.50336229	     44.75511141	      0.00000000	      0.00000000	     79.62954261	      0.71251781	     66.93368569	     21.98520869	     45.72482650	      0.00000000	      0.00000000
      5.04000000	    -19.23244967	      6.23901291	      9.51179130	      0.36516802	      1.23017541	     -0.24715600	      0.00000000	      0.50000000	      0.00000000	      0.25000000	     23.00036354	    -15.93650531	    -14.49084175	     29.45535529	      0.51409293	    -18.08384429	      2.28770176	      0.00000000	      0.00000000	     74.08520008	     -2.21979799	     -3.13964242	     98.50918397	      1.71930960	     12.21286197	     14.86064945	      0.00000000	      0.00000000	    -57.92592973	     -5.42004917	     -3.71153256	     62.38454265	    -20.20576409	     30.82343467	     41.18033104	     44.70197120	      0.00000000	      0.00000000	     79.68999525	      1.04109446	     66.74946069	     22.10882194	     45.68698175	      0.00000000	      0.00000000
      5.04500000	    -19.26097804	      6.14942340	      9.67528766	      0.36414890	      1.23301651	     -0.24659084	      0.00000000	      0.50000000	      0.00000000	      0.25000000	     23.79506951	    -16.03550169	    -13.98975976	     31.59238207	      0.55139109	    -18.19171656	      1.23209530	      0.00000000	      0.00000000	     73.61482313	     -1.75974144	     -3.06692318	     96.72088041	      1.68809782	     12.75005541	     14.59467578	      0.00000000	      0.00000000	    -58.08345459	     -5.50099697	     -3.52438741	     62.71762971	    -20.17259692	     30.81347639	     40.35169834	     44.57025435	      0.00000000	      0.00000000	     79.80463329	      1.48147430	     66.31226888	     22.14601194	     45.56817117	      0.00000000	      0.00000000
      5.05000000	    -19.34227805	      5.71440337	      9.60278986	      0.36330379	      1.23512212	     -0.24660136	      0.00000000	      0.50000000	      0.00000000	      0.25000000	     24.86507127	    -15.82146344	    -13.50355195	     33.95195196	      0.59257335	    -18.37788396	      0.40192906	      0.00000000	      0.00000000	     73.19371247	     -1.62411213	     -2.76639060	     94.99008647	      1.65788977	     13.41432211	     14.57454359	      0.00000000	      0.00000000	    -58.00128853	     -5.37189084	     -3.02172779	     63.27154110	    -20.08350089	     30.68561011	     39.55577312	     44.42192917	      0.00000000	      0.00000000	     79.75696608	      1.83883430	     65.85676026	     22.06359737	     45.43238901	      0.00000000	      0.00000000
      5.05500000	    -19.38474103	      5.25146580	      9.34671712	      0.36248288	      1.23703177	     -0.24631567	      0.00000000	      0.50000000	      0.00000000	      0.25000000	     26.06530053	    -15.51026332	    -12.84974415	     36.47672122	      0.63663889	    -18.49881729	     -0.26981159	      0.00000000	      0.00000000	     72.58610114	     -1.73813077	     -2.52209268	     93.13981404	      1.62559642	     14.13125070	     14.30734514	      0.00000000	      0.00000000	    -57.72776663	     -5.22077788	     -2.93691984	     64.84548988	    -18.14823613	     31.08106079	     35.44165084	     43.96294880	      0.00000000	      0.00000000	     78.25213519	      2.33435406	     58.69774054	     22.90342074	     43.59136534	      0.00000000	      0.00000000
